<svg width="33" height="32" viewBox="0 0 33 32" fill="none" xmlns="http://www.w3.org/2000/svg">
  <g clip-path="url(#clip0_2336_1517)">
    <path fill-rule="evenodd" clip-rule="evenodd" d="M20.9375 9.33301C20.9375 9.88529 20.4898 10.333 19.9375 10.333L-1.39583 10.333C-1.94812 10.333 -2.39583 9.88529 -2.39583 9.33301C-2.39583 8.78072 -1.94812 8.33301 -1.39583 8.33301L19.9375 8.33301C20.4898 8.33301 20.9375 8.78072 20.9375 9.33301Z" fill="#1C274C" />
    <path fill-rule="evenodd" clip-rule="evenodd" d="M20.9375 16C20.9375 16.5523 20.4898 17 19.9375 17L-1.39583 17C-1.94812 17 -2.39583 16.5523 -2.39583 16C-2.39583 15.4477 -1.94812 15 -1.39583 15L19.9375 15C20.4898 15 20.9375 15.4477 20.9375 16Z" fill="#1C274C" />
    <path fill-rule="evenodd" clip-rule="evenodd" d="M20.9375 22.667C20.9375 23.2193 20.4898 23.667 19.9375 23.667L-1.39583 23.667C-1.94812 23.667 -2.39583 23.2193 -2.39583 22.667C-2.39583 22.1147 -1.94812 21.667 -1.39583 21.667L19.9375 21.667C20.4898 21.667 20.9375 22.1147 20.9375 22.667Z" fill="#1C274C" />
  </g>
  <defs>
    <clipPath id="clip0_2336_1517">
      <rect width="32.023" height="32" fill="white" transform="translate(0.222656)" />
    </clipPath>
  </defs>
</svg>