<svg width="32" height="32" viewBox="0 0 32 32" fill="none" xmlns="http://www.w3.org/2000/svg">
<path d="M21.3736 13.3731C21.7641 12.9826 21.7641 12.3494 21.3736 11.9589C20.9831 11.5684 20.3499 11.5684 19.9594 11.9589L13.9998 17.9185L12.0403 15.9589C11.6498 15.5684 11.0166 15.5684 10.6261 15.9589C10.2355 16.3494 10.2355 16.9826 10.6261 17.3731L13.2927 20.0398C13.6833 20.4303 14.3164 20.4303 14.7069 20.0398L21.3736 13.3731Z" fill="#15B354"/>
<path fill-rule="evenodd" clip-rule="evenodd" d="M16.0763 1.66602H15.9233C12.8455 1.666 10.4334 1.66599 8.55145 1.91901C6.62513 2.178 5.1051 2.71845 3.91202 3.91153C2.71894 5.10461 2.17849 6.62464 1.9195 8.55096C1.66647 10.4329 1.66649 12.845 1.6665 15.9228V16.0759C1.66649 19.1537 1.66647 21.5658 1.9195 23.4477C2.17849 25.3741 2.71894 26.8941 3.91202 28.0872C5.1051 29.2802 6.62513 29.8207 8.55145 30.0797C10.4334 30.3327 12.8455 30.3327 15.9233 30.3327H16.0763C19.1542 30.3327 21.5662 30.3327 23.4482 30.0797C25.3745 29.8207 26.8946 29.2802 28.0877 28.0872C29.2807 26.8941 29.8212 25.3741 30.0802 23.4477C30.3332 21.5658 30.3332 19.1537 30.3332 16.0758V15.9229C30.3332 12.845 30.3332 10.4329 30.0802 8.55096C29.8212 6.62464 29.2807 5.10461 28.0877 3.91153C26.8946 2.71845 25.3745 2.178 23.4482 1.91901C21.5663 1.66599 19.1542 1.666 16.0763 1.66602ZM5.32623 5.32575C6.08577 4.5662 7.1134 4.13035 8.81794 3.90118C10.5512 3.66814 12.8289 3.66602 15.9998 3.66602C19.1708 3.66602 21.4484 3.66814 23.1817 3.90118C24.8863 4.13035 25.9139 4.5662 26.6734 5.32575C27.433 6.08529 27.8688 7.11291 28.098 8.81745C28.331 10.5508 28.3332 12.8284 28.3332 15.9993C28.3332 19.1703 28.331 21.4479 28.098 23.1812C27.8688 24.8858 27.433 25.9134 26.6734 26.673C25.9139 27.4325 24.8863 27.8684 23.1817 28.0975C21.4484 28.3306 19.1708 28.3327 15.9998 28.3327C12.8289 28.3327 10.5512 28.3306 8.81794 28.0975C7.1134 27.8684 6.08577 27.4325 5.32623 26.673C4.56669 25.9134 4.13083 24.8858 3.90167 23.1812C3.66863 21.4479 3.66651 19.1703 3.66651 15.9993C3.66651 12.8284 3.66863 10.5508 3.90167 8.81745C4.13083 7.11291 4.56669 6.08529 5.32623 5.32575Z" fill="#15B354"/>
</svg>
