<svg width="36" height="36" viewBox="0 0 36 36" fill="none" xmlns="http://www.w3.org/2000/svg">
<path d="M11.3091 10.0164C12.4162 6.60893 12.9698 4.90517 14.0558 3.81914C15.0111 2.86384 16.2443 2.23549 17.5787 2.02415C19.0957 1.78389 20.7994 2.33747 24.207 3.44464L25.9837 4.02195C29.3912 5.12912 31.095 5.6827 32.181 6.76873C33.1363 7.72403 33.7647 8.95724 33.976 10.2916C34.2163 11.8086 33.6627 13.5123 32.5555 16.9198L31.9782 18.6966C30.8711 22.1041 30.3175 23.8079 29.2314 24.8939C28.2761 25.8492 27.0429 26.4776 25.7086 26.6889C24.1916 26.9292 22.4878 26.3756 19.0803 25.2684L17.3036 24.6911C13.896 23.5839 12.1923 23.0304 11.1063 21.9443C10.151 20.989 9.5226 19.7558 9.31126 18.4215C9.071 16.9045 9.62458 15.2007 10.7318 11.7932L11.3091 10.0164Z" fill="#FF5D04"/>
<g filter="url(#filter0_b_2336_753)">
<rect x="1.96875" y="9.25537" width="24.7756" height="24.7756" rx="7.28693" fill="#FF5D04" fill-opacity="0.32"/>
<rect x="2.05984" y="9.34646" width="24.5934" height="24.5934" rx="7.19585" stroke="url(#paint0_linear_2336_753)" stroke-width="0.182173"/>
</g>
<g filter="url(#filter1_bdii_2336_753)">
<path fill-rule="evenodd" clip-rule="evenodd" d="M13.5022 12.8105H14.848C15.436 12.8105 15.9309 12.8105 16.332 12.8592C16.7577 12.9108 17.1462 13.0237 17.4871 13.2972C17.8281 13.5708 18.0226 13.9255 18.1653 14.3298C18.2991 14.7085 18.4059 15.1882 18.5325 15.7577C18.5934 15.7922 18.6533 15.8291 18.7122 15.8684C19.1295 16.1473 19.4878 16.5056 19.7666 16.9229C20.1151 17.4444 20.2672 18.0407 20.3398 18.7549C20.4107 19.4519 20.4107 20.3249 20.4107 21.4265V21.4935C20.4107 22.5951 20.4107 23.468 20.3398 24.1651C20.2672 24.8793 20.1151 25.4755 19.7666 25.9971C19.4878 26.4144 19.1295 26.7727 18.7122 27.0515C18.6533 27.0909 18.5934 27.1278 18.5325 27.1623C18.406 27.7317 18.2991 28.2114 18.1654 28.5901C18.0226 28.9945 17.8282 29.3492 17.4872 29.6227C17.1462 29.8963 16.7577 30.0091 16.3321 30.0608C15.931 30.1095 15.436 30.1094 14.848 30.1094H13.5022C12.9143 30.1094 12.4193 30.1095 12.0182 30.0608C11.5926 30.0091 11.2041 29.8963 10.8631 29.6227C10.5221 29.3492 10.3276 28.9945 10.1849 28.5901C10.0512 28.2114 9.94429 27.7318 9.81776 27.1623C9.75684 27.1278 9.69694 27.0909 9.63799 27.0515C9.22069 26.7727 8.86239 26.4144 8.58355 25.9971C8.23506 25.4755 8.083 24.8793 8.01035 24.1651C7.93944 23.468 7.93945 22.5951 7.93945 21.4934V21.4265C7.93945 20.3249 7.93944 19.4519 8.01035 18.7549C8.083 18.0407 8.23506 17.4444 8.58355 16.9229C8.86239 16.5056 9.22069 16.1473 9.63799 15.8684C9.69693 15.8291 9.75681 15.7922 9.81771 15.7577C9.94424 15.1882 10.0511 14.7085 10.1848 14.3298C10.3276 13.9255 10.5221 13.5708 10.863 13.2972C11.204 13.0237 11.5925 12.9108 12.0182 12.8592C12.4193 12.8105 12.9142 12.8105 13.5022 12.8105ZM11.1525 15.3343C11.2557 15.3192 11.3615 15.3063 11.47 15.2952C12.1671 15.2243 13.04 15.2243 14.1416 15.2243H14.2086C15.3102 15.2243 16.1831 15.2243 16.8802 15.2952C16.9887 15.3063 17.0945 15.3192 17.1977 15.3343C17.139 15.0915 17.0853 14.8959 17.0273 14.7317C16.9255 14.4434 16.8322 14.3191 16.732 14.2387C16.6317 14.1582 16.4901 14.0941 16.1866 14.0573C15.8668 14.0185 15.4456 14.0174 14.8118 14.0174H13.5384C12.9046 14.0174 12.4834 14.0185 12.1636 14.0573C11.86 14.0941 11.7185 14.1582 11.6182 14.2387C11.518 14.3191 11.4247 14.4434 11.3229 14.7317C11.2649 14.8959 11.2112 15.0915 11.1525 15.3343ZM11.1525 27.5857C11.2113 27.8285 11.2649 28.0241 11.3229 28.1883C11.4247 28.4766 11.518 28.6009 11.6183 28.6813C11.7185 28.7617 11.8601 28.8258 12.1636 28.8627C12.4834 28.9015 12.9046 28.9025 13.5384 28.9025H14.8118C15.4456 28.9025 15.8668 28.9015 16.1867 28.8627C16.4902 28.8258 16.6317 28.7617 16.732 28.6813C16.8323 28.6009 16.9256 28.4766 17.0274 28.1883C17.0854 28.0241 17.139 27.8285 17.1978 27.5857C17.0945 27.6008 16.9887 27.6137 16.8802 27.6247C16.1831 27.6956 15.3102 27.6956 14.2085 27.6956H14.1417C13.04 27.6956 12.1671 27.6956 11.47 27.6247C11.3615 27.6137 11.2557 27.6008 11.1525 27.5857ZM11.5921 16.4959C10.9734 16.5589 10.5987 16.678 10.3085 16.8719C10.023 17.0627 9.77783 17.3079 9.58705 17.5934C9.39315 17.8836 9.274 18.2583 9.21105 18.877C9.14708 19.5059 9.14635 20.3174 9.14635 21.46C9.14635 22.6026 9.14708 23.4141 9.21105 24.0429C9.274 24.6617 9.39315 25.0364 9.58705 25.3266C9.77783 25.6121 10.023 25.8572 10.3085 26.048C10.5987 26.2419 10.9734 26.3611 11.5921 26.424C12.221 26.488 13.0325 26.4887 14.1751 26.4887C15.3177 26.4887 16.1292 26.488 16.7581 26.424C17.3768 26.3611 17.7515 26.2419 18.0417 26.048C18.3272 25.8572 18.5724 25.6121 18.7631 25.3266C18.957 25.0364 19.0762 24.6617 19.1391 24.0429C19.2031 23.4141 19.2038 22.6026 19.2038 21.46C19.2038 20.3174 19.2031 19.5059 19.1391 18.877C19.0762 18.2583 18.957 17.8836 18.7631 17.5934C18.5724 17.3079 18.3272 17.0627 18.0417 16.8719C17.7515 16.678 17.3768 16.5589 16.7581 16.4959C16.1292 16.432 15.3177 16.4312 14.1751 16.4312C13.0325 16.4312 12.221 16.432 11.5921 16.4959ZM14.1751 18.4427C14.5084 18.4427 14.7785 18.7129 14.7785 19.0462V21.2649L16.2025 22.6342C16.4428 22.8652 16.4503 23.2472 16.2193 23.4874C15.9883 23.7277 15.6063 23.7351 15.366 23.5042L14.0655 22.2536C13.822 22.0195 13.7002 21.9024 13.6359 21.7514C13.5716 21.6004 13.5716 21.4315 13.5716 21.0937V19.0462C13.5716 18.7129 13.8418 18.4427 14.1751 18.4427Z" fill="url(#paint1_linear_2336_753)"/>
</g>
<defs>
<filter id="filter0_b_2336_753" x="-6.77557" y="0.511053" width="42.264" height="42.264" filterUnits="userSpaceOnUse" color-interpolation-filters="sRGB">
<feFlood flood-opacity="0" result="BackgroundImageFix"/>
<feGaussianBlur in="BackgroundImageFix" stdDeviation="4.37216"/>
<feComposite in2="SourceAlpha" operator="in" result="effect1_backgroundBlur_2336_753"/>
<feBlend mode="normal" in="SourceGraphic" in2="effect1_backgroundBlur_2336_753" result="shape"/>
</filter>
<filter id="filter1_bdii_2336_753" x="-0.581321" y="6.70481" width="29.8766" height="29.8766" filterUnits="userSpaceOnUse" color-interpolation-filters="sRGB">
<feFlood flood-opacity="0" result="BackgroundImageFix"/>
<feGaussianBlur in="BackgroundImageFix" stdDeviation="2.55043"/>
<feComposite in2="SourceAlpha" operator="in" result="effect1_backgroundBlur_2336_753"/>
<feColorMatrix in="SourceAlpha" type="matrix" values="0 0 0 0 0 0 0 0 0 0 0 0 0 0 0 0 0 0 127 0" result="hardAlpha"/>
<feOffset dx="1.82173" dy="1.82173"/>
<feGaussianBlur stdDeviation="1.82173"/>
<feColorMatrix type="matrix" values="0 0 0 0 0.545833 0 0 0 0 0.516267 0 0 0 0 0.517981 0 0 0 0.5 0"/>
<feBlend mode="normal" in2="effect1_backgroundBlur_2336_753" result="effect2_dropShadow_2336_753"/>
<feBlend mode="normal" in="SourceGraphic" in2="effect2_dropShadow_2336_753" result="shape"/>
<feColorMatrix in="SourceAlpha" type="matrix" values="0 0 0 0 0 0 0 0 0 0 0 0 0 0 0 0 0 0 127 0" result="hardAlpha"/>
<feOffset dy="0.0728693"/>
<feComposite in2="hardAlpha" operator="arithmetic" k2="-1" k3="1"/>
<feColorMatrix type="matrix" values="0 0 0 0 1 0 0 0 0 1 0 0 0 0 1 0 0 0 0.25 0"/>
<feBlend mode="normal" in2="shape" result="effect3_innerShadow_2336_753"/>
<feColorMatrix in="SourceAlpha" type="matrix" values="0 0 0 0 0 0 0 0 0 0 0 0 0 0 0 0 0 0 127 0" result="hardAlpha"/>
<feOffset dy="-0.0728693"/>
<feComposite in2="hardAlpha" operator="arithmetic" k2="-1" k3="1"/>
<feColorMatrix type="matrix" values="0 0 0 0 0.929167 0 0 0 0 0.166476 0 0 0 0 0.212237 0 0 0 0.27 0"/>
<feBlend mode="normal" in2="effect3_innerShadow_2336_753" result="effect4_innerShadow_2336_753"/>
</filter>
<linearGradient id="paint0_linear_2336_753" x1="5.91262" y1="12.1418" x2="21.7168" y2="31.7156" gradientUnits="userSpaceOnUse">
<stop stop-color="white" stop-opacity="0.25"/>
<stop offset="1" stop-color="white" stop-opacity="0"/>
</linearGradient>
<linearGradient id="paint1_linear_2336_753" x1="14.001" y1="29.999" x2="4.45891" y2="59.9185" gradientUnits="userSpaceOnUse">
<stop stop-color="white" stop-opacity="0.88"/>
<stop offset="1" stop-color="white" stop-opacity="0"/>
</linearGradient>
</defs>
</svg>
