<svg width="56" height="56" viewBox="0 0 56 56" fill="none" xmlns="http://www.w3.org/2000/svg">
<path d="M31.2944 27.9999L45.9944 13.3233C46.4338 12.8839 46.6806 12.288 46.6806 11.6666C46.6806 11.0452 46.4338 10.4493 45.9944 10.0099C45.555 9.57057 44.9591 9.32373 44.3377 9.32373C43.7164 9.32373 43.1205 9.57057 42.6811 10.0099L28.0044 24.7099L13.3277 10.0099C12.8884 9.57057 12.2925 9.32373 11.6711 9.32373C11.0497 9.32373 10.4538 9.57057 10.0144 10.0099C9.57504 10.4493 9.3282 11.0452 9.3282 11.6666C9.3282 12.288 9.57504 12.8839 10.0144 13.3233L24.7144 27.9999L10.0144 42.6766C9.79572 42.8935 9.62213 43.1516 9.50367 43.4359C9.38521 43.7203 9.32422 44.0252 9.32422 44.3333C9.32422 44.6413 9.38521 44.9463 9.50367 45.2306C9.62213 45.515 9.79572 45.773 10.0144 45.9899C10.2313 46.2086 10.4894 46.3822 10.7737 46.5007C11.0581 46.6192 11.3631 46.6801 11.6711 46.6801C11.9791 46.6801 12.2841 46.6192 12.5684 46.5007C12.8528 46.3822 13.1108 46.2086 13.3277 45.9899L28.0044 31.2899L42.6811 45.9899C42.898 46.2086 43.1561 46.3822 43.4404 46.5007C43.7247 46.6192 44.0297 46.6801 44.3377 46.6801C44.6458 46.6801 44.9508 46.6192 45.2351 46.5007C45.5194 46.3822 45.7775 46.2086 45.9944 45.9899C46.2131 45.773 46.3867 45.515 46.5052 45.2306C46.6236 44.9463 46.6846 44.6413 46.6846 44.3333C46.6846 44.0252 46.6236 43.7203 46.5052 43.4359C46.3867 43.1516 46.2131 42.8935 45.9944 42.6766L31.2944 27.9999Z" fill="white"/>
</svg>
