<svg width="39" height="38" viewBox="0 0 39 38" fill="none" xmlns="http://www.w3.org/2000/svg">
<g clip-path="url(#clip0_1814_3099)">
<path d="M33.3968 0.522461H5.48038C2.91439 0.522461 0.827637 2.60922 0.827637 5.1752V33.0917C0.827637 35.6576 2.91439 37.7444 5.48038 37.7444H33.3968C35.9628 37.7444 38.0496 35.6576 38.0496 33.0917V5.1752C38.0496 2.60922 35.9628 0.522461 33.3968 0.522461Z" fill="#1976D2"/>
<path fill-rule="evenodd" clip-rule="evenodd" d="M32.2337 19.1333H26.4177V14.4806C26.4177 13.1964 27.46 13.3174 28.7441 13.3174H31.0705V7.50146H26.4177C24.5668 7.50146 22.7916 8.23676 21.4828 9.5456C20.1739 10.8544 19.4386 12.6296 19.4386 14.4806V19.1333H14.7859V24.9492H19.4386V37.7443H26.4177V24.9492H29.9073L32.2337 19.1333Z" fill="#FAFAFA"/>
</g>
<defs>
<clipPath id="clip0_1814_3099">
<rect width="37.2219" height="37.2219" fill="white" transform="translate(0.827637 0.522461)"/>
</clipPath>
</defs>
</svg>
