<svg width="38" height="38" viewBox="0 0 38 38" fill="none" xmlns="http://www.w3.org/2000/svg">
<g clip-path="url(#clip0_1814_3102)">
<path d="M31.7483 0.522461H5.69291C2.60934 0.522461 0.109619 3.02219 0.109619 6.10575V32.1611C0.109619 35.2447 2.60934 37.7444 5.69291 37.7444H31.7483C34.8318 37.7444 37.3316 35.2447 37.3316 32.1611V6.10575C37.3316 3.02219 34.8318 0.522461 31.7483 0.522461Z" fill="#0077B5"/>
<path d="M10.4329 13.245C11.9185 13.245 13.1228 12.0407 13.1228 10.5551C13.1228 9.06953 11.9185 7.86523 10.4329 7.86523C8.94734 7.86523 7.74304 9.06953 7.74304 10.5551C7.74304 12.0407 8.94734 13.245 10.4329 13.245Z" fill="white"/>
<path d="M18.5096 15V29V15ZM10.5096 15V29V15Z" fill="white"/>
<path d="M18.5096 15V29M10.5096 15V29" stroke="white" stroke-width="5"/>
<path d="M20.0002 21.3762C20.0002 19.9901 21.0595 18.604 22.9336 18.604C24.8891 18.604 25.6225 19.8515 25.6225 21.7228V29H31.0002V21.1683C31.0002 16.9406 28.3928 15 24.8077 15C22.0373 15 20.6521 16.3168 20.0002 17.2178" fill="white"/>
</g>
<defs>
<clipPath id="clip0_1814_3102">
<rect width="37.2219" height="37.2219" fill="white" transform="translate(0.109619 0.522461)"/>
</clipPath>
</defs>
</svg>
