<svg width="38" height="38" viewBox="0 0 38 38" fill="none" xmlns="http://www.w3.org/2000/svg">
<g clip-path="url(#clip0_1814_3090)">
<path d="M9.70235 37.6127C8.26263 37.5966 6.83645 37.3325 5.48642 36.8321C4.50057 36.4677 3.60861 35.8875 2.87578 35.1341C2.12031 34.4027 1.53932 33.5106 1.17597 32.5238C0.675942 31.1738 0.412261 29.7478 0.396503 28.3083C0.285932 25.9151 0.263672 25.1973 0.263672 19.1334C0.263672 13.0695 0.288122 12.3543 0.395408 9.95932C0.413079 8.52035 0.677084 7.09504 1.17597 5.74521C1.54109 4.75919 2.12125 3.86688 2.87432 3.1331C3.60625 2.37831 4.49862 1.79787 5.48532 1.43476C6.83536 0.934317 8.26154 0.670264 9.70126 0.654197C12.0951 0.544721 12.814 0.522461 18.8746 0.522461C24.9352 0.522461 25.6538 0.546911 28.0487 0.654197C29.4881 0.671743 30.9138 0.93575 32.264 1.43476C33.2502 1.79835 34.1423 2.37859 34.8746 3.13274C35.629 3.86522 36.2095 4.75759 36.5733 5.74411C37.0739 7.09413 37.338 8.52031 37.3542 9.96004C37.4637 12.355 37.486 13.0721 37.486 19.1342C37.486 25.1962 37.4637 25.9133 37.3542 28.3083C37.3369 29.7478 37.0727 31.1736 36.5733 32.5238C36.1955 33.503 35.6169 34.3922 34.8747 35.1342C34.1325 35.8762 33.2432 36.4546 32.264 36.8321C30.9139 37.3327 29.4878 37.5968 28.048 37.613C25.6552 37.7225 24.936 37.7448 18.8739 37.7448C12.8118 37.7448 12.0948 37.7236 9.70199 37.613" fill="url(#paint0_radial_1814_3090)"/>
<path d="M9.70235 37.6127C8.26263 37.5966 6.83645 37.3325 5.48642 36.8321C4.50057 36.4677 3.60861 35.8875 2.87578 35.1341C2.12031 34.4027 1.53932 33.5106 1.17597 32.5238C0.675942 31.1738 0.412261 29.7478 0.396503 28.3083C0.285932 25.9151 0.263672 25.1973 0.263672 19.1334C0.263672 13.0695 0.288122 12.3543 0.395408 9.95932C0.413079 8.52035 0.677084 7.09504 1.17597 5.74521C1.54109 4.75919 2.12125 3.86688 2.87432 3.1331C3.60625 2.37831 4.49862 1.79787 5.48532 1.43476C6.83536 0.934317 8.26154 0.670264 9.70126 0.654197C12.0951 0.544721 12.814 0.522461 18.8746 0.522461C24.9352 0.522461 25.6538 0.546911 28.0487 0.654197C29.4881 0.671743 30.9138 0.93575 32.264 1.43476C33.2502 1.79835 34.1423 2.37859 34.8746 3.13274C35.629 3.86522 36.2095 4.75759 36.5733 5.74411C37.0739 7.09413 37.338 8.52031 37.3542 9.96004C37.4637 12.355 37.486 13.0721 37.486 19.1342C37.486 25.1962 37.4637 25.9133 37.3542 28.3083C37.3369 29.7478 37.0727 31.1736 36.5733 32.5238C36.1955 33.503 35.6169 34.3922 34.8747 35.1342C34.1325 35.8762 33.2432 36.4546 32.264 36.8321C30.9139 37.3327 29.4878 37.5968 28.048 37.613C25.6552 37.7225 24.936 37.7448 18.8739 37.7448C12.8118 37.7448 12.0948 37.7236 9.70199 37.613" fill="url(#paint1_radial_1814_3090)"/>
<path d="M14.3054 19.2144C14.3055 18.3028 14.5759 17.4116 15.0825 16.6537C15.589 15.8957 16.309 15.3049 17.1512 14.9562C17.9935 14.6074 18.9203 14.5162 19.8145 14.6941C20.7086 14.8721 21.5298 15.3112 22.1744 15.9559C22.819 16.6006 23.2579 17.422 23.4356 18.3161C23.6133 19.2103 23.5219 20.1371 23.1729 20.9793C22.824 21.8215 22.233 22.5413 21.475 23.0477C20.7169 23.554 19.8257 23.8243 18.914 23.8241C17.6916 23.8239 16.5193 23.3381 15.6551 22.4737C14.7908 21.6092 14.3053 20.4368 14.3054 19.2144ZM11.8134 19.2144C11.8134 20.6188 12.2298 21.9916 13.01 23.1593C13.7903 24.327 14.8992 25.2371 16.1967 25.7746C17.4942 26.312 18.9219 26.4526 20.2993 26.1786C21.6767 25.9046 22.9419 25.2284 23.9349 24.2353C24.928 23.2423 25.6042 21.9771 25.8782 20.5997C26.1522 19.2223 26.0116 17.7946 25.4741 16.4971C24.9367 15.1997 24.0266 14.0907 22.8589 13.3105C21.6912 12.5302 20.3184 12.1138 18.914 12.1138C17.9815 12.1137 17.0582 12.2974 16.1967 12.6542C15.3351 13.011 14.5524 13.534 13.893 14.1934C13.2336 14.8528 12.7106 15.6356 12.3538 16.4971C11.997 17.3586 11.8133 18.2819 11.8134 19.2144ZM24.6363 11.8324C24.6362 12.1606 24.7334 12.4815 24.9156 12.7544C25.0978 13.0274 25.3568 13.2402 25.66 13.3659C25.9631 13.4916 26.2967 13.5246 26.6186 13.4607C26.9405 13.3968 27.2363 13.2389 27.4684 13.007C27.7006 12.775 27.8587 12.4794 27.9229 12.1576C27.9871 11.8358 27.9543 11.5021 27.8289 11.1989C27.7034 10.8956 27.4909 10.6364 27.2181 10.4539C26.9453 10.2715 26.6245 10.174 26.2964 10.1739C25.8565 10.1741 25.4346 10.3489 25.1235 10.6598C24.8124 10.9708 24.6374 11.3925 24.6371 11.8324M13.3282 30.4704C12.4513 30.4608 11.5826 30.3003 10.7602 29.996C10.1638 29.7661 9.62208 29.4139 9.17 28.962C8.71792 28.5101 8.36547 27.9686 8.13533 27.3722C7.83091 26.5498 7.67043 25.6812 7.66094 24.8043C7.5938 23.3468 7.58066 22.9089 7.58066 19.2162C7.58066 15.5236 7.59526 15.0868 7.66094 13.6279C7.67158 12.7511 7.83202 11.8826 8.13533 11.0599C8.36521 10.4633 8.71755 9.92145 9.16966 9.46935C9.62176 9.01724 10.1636 8.6649 10.7602 8.43502C11.5826 8.1306 12.4513 7.97013 13.3282 7.96063C14.7857 7.89348 15.2236 7.88035 18.9147 7.88035C22.6059 7.88035 23.0442 7.89458 24.5031 7.961C25.3799 7.97164 26.2484 8.13207 27.0711 8.43539C27.6677 8.66528 28.2095 9.01764 28.6616 9.46974C29.1137 9.92184 29.4661 10.4637 29.696 11.0603C30.0004 11.8827 30.1608 12.7513 30.1704 13.6282C30.2375 15.0879 30.2506 15.5236 30.2506 19.2166C30.2506 22.9096 30.2371 23.3461 30.1704 24.805C30.1601 25.6818 29.9997 26.5504 29.696 27.373C29.4658 27.9693 29.1134 28.5108 28.6613 28.9627C28.2092 29.4146 27.6675 29.7668 27.0711 29.9967C26.2487 30.3012 25.38 30.4616 24.5031 30.4711C23.0456 30.5383 22.6077 30.5514 18.9147 30.5514C15.2217 30.5514 14.7853 30.5379 13.3282 30.4711M13.2136 5.47078C12.0662 5.49333 10.931 5.7105 9.8563 6.11303C8.93762 6.46823 8.10329 7.01149 7.40682 7.70797C6.71034 8.40444 6.16708 9.23876 5.81188 10.1574C5.40941 11.2321 5.19224 12.3674 5.16963 13.5147C5.10139 14.989 5.08606 15.4605 5.08606 19.2159C5.08606 22.9713 5.10175 23.4424 5.16963 24.917C5.19224 26.0644 5.4094 27.1996 5.81188 28.2743C6.1671 29.193 6.71037 30.0273 7.40684 30.7238C8.10331 31.4202 8.93763 31.9635 9.8563 32.3187C10.931 32.7211 12.0662 32.9382 13.2136 32.961C14.6886 33.0281 15.1593 33.0446 18.9147 33.0446C22.6701 33.0446 23.1413 33.0289 24.6159 32.961C25.7633 32.9383 26.8985 32.7212 27.9732 32.3187C28.8918 31.9635 29.7262 31.4202 30.4226 30.7238C31.1191 30.0273 31.6624 29.193 32.0176 28.2743C32.4206 27.1998 32.6378 26.0645 32.6599 24.917C32.727 23.4417 32.7423 22.9713 32.7423 19.2159C32.7423 15.4605 32.7266 14.9894 32.6599 13.5147C32.6373 12.3674 32.4201 11.2321 32.0176 10.1574C31.6624 9.23894 31.1193 8.40474 30.423 7.70829C29.7267 7.01183 28.8927 6.46848 27.9743 6.11303C26.8997 5.71024 25.7644 5.49307 24.617 5.47078C23.1423 5.40326 22.6712 5.38721 18.9166 5.38721C15.1619 5.38721 14.6897 5.4029 13.2143 5.47078" fill="white"/>
</g>
<defs>
<radialGradient id="paint0_radial_1814_3090" cx="0" cy="0" r="1" gradientUnits="userSpaceOnUse" gradientTransform="translate(2.67251 36.9292) scale(47.258)">
<stop offset="0.09" stop-color="#FA8F21"/>
<stop offset="0.78" stop-color="#D82D7E"/>
</radialGradient>
<radialGradient id="paint1_radial_1814_3090" cx="0" cy="0" r="1" gradientUnits="userSpaceOnUse" gradientTransform="translate(26.0461 35.7337) scale(41.5875)">
<stop offset="0.64" stop-color="#8C3AAA" stop-opacity="0"/>
<stop offset="1" stop-color="#8C3AAA"/>
</radialGradient>
<clipPath id="clip0_1814_3090">
<rect width="37.2219" height="37.2219" fill="white" transform="translate(0.263672 0.522461)"/>
</clipPath>
</defs>
</svg>
