<svg width="105" height="48" viewBox="0 0 105 48" fill="none" xmlns="http://www.w3.org/2000/svg">
<path d="M18.0791 18.7168C18.0791 17.8275 18.229 17.0382 18.5313 16.3488C18.8336 15.6595 19.2496 15.0777 19.7792 14.6062C20.3089 14.1346 20.9497 13.7758 21.7016 13.5298C22.4509 13.2838 23.2751 13.1633 24.1717 13.1633C25.2698 13.1633 26.1251 13.2812 26.7374 13.517C27.3498 13.7528 27.7942 14.0065 28.0681 14.2807C28.2334 14.4626 28.36 14.6523 28.4531 14.8522C28.5435 15.0521 28.59 15.2879 28.59 15.5595C28.59 15.8312 28.5487 16.0874 28.466 16.3232C28.3833 16.559 28.2825 16.7691 28.1637 16.9485C28.0448 17.1305 27.9311 17.2842 27.82 17.4124C27.7089 17.5405 27.6288 17.6302 27.572 17.684C27.2593 17.538 26.8847 17.4021 26.4454 17.2766C26.0062 17.151 25.5204 17.0869 24.9908 17.0869C24.2957 17.0869 23.704 17.2868 23.2209 17.6866C22.7351 18.0864 22.4922 18.7476 22.4922 19.6753V27.4353H18.0791V18.7168Z" fill="#231F20"/>
<path d="M30.5928 9.81376C30.5928 9.12438 30.8253 8.54264 31.293 8.07109C31.7607 7.59954 32.3394 7.36377 33.0371 7.36377C33.7321 7.36377 34.3186 7.59954 34.794 8.07109C35.2695 8.54264 35.5072 9.12438 35.5072 9.81376C35.5072 10.5031 35.2695 11.0798 34.794 11.5436C34.3186 12.0075 33.7321 12.2381 33.0371 12.2381C32.342 12.2381 31.7607 12.0075 31.293 11.5436C30.8253 11.0798 30.5928 10.5031 30.5928 9.81376ZM30.8408 15.4749C30.8408 14.7676 31.0501 14.2678 31.4713 13.9782C31.8924 13.6886 32.4505 13.5426 33.1456 13.5426C33.6391 13.5426 34.0887 13.6015 34.4917 13.7194C34.8948 13.8373 35.1506 13.9142 35.2591 13.9501V27.4276H30.8382V15.4749H30.8408Z" fill="#231F20"/>
<path d="M42.7 27.4302C42.1316 26.4333 41.5786 25.4056 41.0386 24.3549C40.4986 23.3016 40.0103 22.3175 39.571 21.4C39.1318 20.4825 38.7649 19.7035 38.4729 19.0577C38.1809 18.4144 37.9975 18.0018 37.9251 17.8198C37.7779 17.4559 37.6177 17.0485 37.4446 16.5948C37.2714 16.1412 37.1836 15.7338 37.1836 15.3698C37.1836 14.8624 37.367 14.4319 37.7314 14.0757C38.0983 13.722 38.646 13.5452 39.3798 13.5452C39.9663 13.5452 40.4418 13.6041 40.8087 13.722C41.1756 13.8399 41.3849 13.9168 41.4391 13.9526C41.7492 14.8419 42.0799 15.7414 42.4287 16.6487C42.7749 17.5559 43.1108 18.3965 43.4312 19.1679C43.7516 19.9392 44.0384 20.6209 44.2968 21.2104C44.5526 21.7998 44.736 22.215 44.8446 22.4507C44.9557 22.215 45.1288 21.8101 45.3665 21.2386C45.6042 20.6671 45.8652 20.0315 46.1494 19.3319C46.4336 18.6322 46.7152 17.9352 46.9995 17.2355C47.2837 16.5359 47.5265 15.9413 47.7281 15.4519C47.8366 15.1802 47.9606 14.9265 48.0976 14.6882C48.2345 14.4524 48.3999 14.2474 48.5911 14.0757C48.7823 13.904 49.0174 13.7707 49.2913 13.681C49.5652 13.5913 49.9036 13.5452 50.3067 13.5452C50.6736 13.5452 51.0018 13.581 51.2963 13.6554C51.5883 13.7271 51.8467 13.8091 52.0663 13.9014C52.2859 13.9936 52.459 14.0782 52.5882 14.1602C52.7174 14.2422 52.7975 14.2935 52.8363 14.3089C52.7639 14.6343 52.5882 15.1315 52.3143 15.7927C52.0404 16.4565 51.7149 17.2125 51.3402 18.0659C50.9656 18.9193 50.5573 19.8137 50.1181 20.7491C49.6789 21.6845 49.2474 22.5866 48.8288 23.4579C48.4076 24.3292 48.0149 25.1134 47.648 25.8131C47.2811 26.5127 46.9969 27.0509 46.7979 27.4327H42.7V27.4302Z" fill="#231F20"/>
<path d="M54.064 20.4852C54.064 19.432 54.2655 18.4607 54.6686 17.5714C55.0716 16.6821 55.6246 15.9107 56.33 15.2572C57.0353 14.6037 57.8544 14.0912 58.7872 13.7196C59.7199 13.348 60.7276 13.1609 61.8076 13.1609C62.8696 13.1609 63.8721 13.348 64.8126 13.7196C65.7557 14.0912 66.5799 14.6037 67.2827 15.2572C67.9881 15.9107 68.541 16.6821 68.9441 17.5714C69.3471 18.4607 69.5487 19.432 69.5487 20.4852C69.5487 21.5385 69.3471 22.5098 68.9441 23.3991C68.541 24.2884 67.9881 25.0598 67.2827 25.7133C66.5773 26.3668 65.7531 26.8793 64.8126 27.2509C63.8695 27.6225 62.867 27.8096 61.8076 27.8096C60.7276 27.8096 59.7199 27.6225 58.7872 27.2509C57.8544 26.8793 57.0353 26.3668 56.33 25.7133C55.6246 25.0598 55.0716 24.2884 54.6686 23.3991C54.2655 22.5098 54.064 21.5385 54.064 20.4852ZM61.805 23.8911C62.2624 23.8911 62.6887 23.804 63.0814 23.6323C63.4742 23.4606 63.8178 23.2248 64.1098 22.925C64.4017 22.6251 64.6265 22.2664 64.7816 21.8486C64.9366 21.4309 65.0141 20.9773 65.0141 20.4878C65.0141 19.9983 64.9366 19.5447 64.7816 19.127C64.6265 18.7093 64.4017 18.3505 64.1098 18.0506C63.8178 17.7508 63.4742 17.515 63.0814 17.3433C62.6887 17.1716 62.2624 17.0845 61.805 17.0845C61.3296 17.0845 60.8981 17.1716 60.5157 17.3433C60.1307 17.515 59.7922 17.7508 59.5003 18.0506C59.2083 18.3505 58.9835 18.7093 58.8285 19.127C58.6735 19.5447 58.5959 19.9983 58.5959 20.4878C58.5959 20.9773 58.6735 21.4309 58.8285 21.8486C58.9835 22.2664 59.2083 22.6251 59.5003 22.925C59.7922 23.2248 60.1307 23.4606 60.5157 23.6323C60.9007 23.804 61.3296 23.8911 61.805 23.8911Z" fill="#231F20"/>
<path d="M76.3001 27.4302C75.7317 26.4333 75.1787 25.4056 74.6387 24.3549C74.0987 23.3016 73.6104 22.3175 73.1711 21.4C72.7319 20.4825 72.365 19.7035 72.073 19.0577C71.781 18.4144 71.5976 18.0018 71.5252 17.8198C71.378 17.4559 71.2178 17.0485 71.0446 16.5948C70.8715 16.1412 70.7837 15.7338 70.7837 15.3698C70.7837 14.8624 70.9671 14.4319 71.3315 14.0757C71.6984 13.722 72.2461 13.5452 72.9799 13.5452C73.5664 13.5452 74.0419 13.6041 74.4088 13.722C74.7757 13.8399 74.985 13.9168 75.0392 13.9526C75.3493 14.8419 75.68 15.7414 76.0288 16.6487C76.375 17.5559 76.7109 18.3965 77.0313 19.1679C77.3517 19.9392 77.6385 20.6209 77.8969 21.2104C78.1527 21.7998 78.3361 22.215 78.4447 22.4507C78.5558 22.215 78.7289 21.8101 78.9666 21.2386C79.2043 20.6671 79.4653 20.0315 79.7495 19.3319C80.0337 18.6322 80.3153 17.9352 80.5995 17.2355C80.8838 16.5359 81.1266 15.9413 81.3282 15.4519C81.4367 15.1802 81.5607 14.9265 81.6977 14.6882C81.8346 14.4524 82 14.2474 82.1912 14.0757C82.3824 13.904 82.6175 13.7707 82.8914 13.681C83.1653 13.5913 83.5037 13.5452 83.9068 13.5452C84.2737 13.5452 84.6019 13.581 84.8964 13.6554C85.1884 13.7271 85.4468 13.8091 85.6664 13.9014C85.886 13.9911 86.0591 14.0782 86.1883 14.1602C86.3175 14.2422 86.3976 14.2935 86.4364 14.3089C86.364 14.6343 86.1883 15.1315 85.9144 15.7927C85.6405 16.4565 85.315 17.2125 84.9403 18.0659C84.5657 18.9193 84.1574 19.8137 83.7182 20.7491C83.279 21.6845 82.8475 22.5866 82.4289 23.4579C82.0077 24.3292 81.615 25.1134 81.2481 25.8131C80.8812 26.5127 80.597 27.0509 80.398 27.4327H76.3001V27.4302Z" fill="#231F20"/>
<path d="M87.666 20.4852C87.666 19.432 87.8676 18.4607 88.2706 17.5714C88.6737 16.6821 89.2266 15.9107 89.932 15.2572C90.6374 14.6037 91.4565 14.0912 92.3892 13.7196C93.322 13.348 94.3296 13.1609 95.4097 13.1609C96.4716 13.1609 97.4741 13.348 98.4146 13.7196C99.3577 14.0912 100.182 14.6037 100.885 15.2572C101.59 15.9107 102.143 16.6821 102.546 17.5714C102.949 18.4607 103.151 19.432 103.151 20.4852C103.151 21.5385 102.949 22.5098 102.546 23.3991C102.143 24.2884 101.59 25.0598 100.885 25.7133C100.179 26.3668 99.3551 26.8793 98.4146 27.2509C97.4715 27.6225 96.469 27.8096 95.4097 27.8096C94.3296 27.8096 93.322 27.6225 92.3892 27.2509C91.4565 26.8793 90.6374 26.3668 89.932 25.7133C89.2266 25.0598 88.6737 24.2884 88.2706 23.3991C87.8676 22.5098 87.666 21.5385 87.666 20.4852ZM95.4071 23.8911C95.8644 23.8911 96.2907 23.804 96.6835 23.6323C97.0762 23.4606 97.4199 23.2248 97.7118 22.925C98.0038 22.6251 98.2286 22.2664 98.3836 21.8486C98.5386 21.4309 98.6162 20.9773 98.6162 20.4878C98.6162 19.9983 98.5386 19.5447 98.3836 19.127C98.2286 18.7093 98.0038 18.3505 97.7118 18.0506C97.4199 17.7508 97.0762 17.515 96.6835 17.3433C96.2907 17.1716 95.8644 17.0845 95.4071 17.0845C94.9317 17.0845 94.5002 17.1716 94.1178 17.3433C93.7328 17.515 93.3943 17.7508 93.1023 18.0506C92.8104 18.3505 92.5856 18.7093 92.4305 19.127C92.2755 19.5447 92.198 19.9983 92.198 20.4878C92.198 20.9773 92.2755 21.4309 92.4305 21.8486C92.5856 22.2664 92.8104 22.6251 93.1023 22.925C93.3943 23.2248 93.7328 23.4606 94.1178 23.6323C94.5002 23.804 94.9317 23.8911 95.4071 23.8911Z" fill="#231F20"/>
<path d="M104.474 15.6313C101.825 10.0445 96.854 9.79333 94.358 9.36279C92.061 8.96813 89.4591 8.51964 86.1131 6.78722C80.837 4.05789 73.9098 3.36595 67.1092 4.88822C62.6109 5.89538 59.5981 7.15882 57.4743 9.26028C57.1254 9.60625 55.2263 11.4181 54.9886 11.636C52.3609 14.0296 50.7357 11.1183 50.7383 10.4289C50.9476 10.0906 51.1982 9.74208 51.4773 9.39098C52.9578 7.51505 53.72 6.67959 56.5157 4.66526C60.0038 2.1512 64.8743 1.19273 66.1352 0.910827C70.724 -0.114274 79.682 -1.18294 88.1465 3.19424C90.8905 4.61401 92.9421 4.96767 95.1151 5.34183C95.6344 5.43153 96.1563 5.52122 96.6886 5.6263C101.215 6.51557 104.474 10.3136 104.474 14.7318V15.6313Z" fill="#FF5D00"/>
<path d="M15.2006 26.1079V19.8599V18.3171V5.50335C15.092 5.46747 14.8388 5.39059 14.4461 5.2727C14.0533 5.15482 12.5909 4.79859 11.4411 6.43876C10.7926 7.36391 10.8107 8.58891 10.8107 9.29879V14.6601C10.4799 14.3346 9.98127 14.0014 9.31465 13.6657C8.64545 13.33 7.80054 13.1609 6.77478 13.1609C5.84202 13.1609 4.96353 13.3377 4.1393 13.6913C3.31507 14.045 2.59677 14.5396 1.98441 15.1752C1.37205 15.8107 0.886293 16.577 0.529728 17.4765C0.214505 18.2659 0.00780064 19.1372 4.9233e-05 20.088C-0.00770217 21.0029 0.901796 21.1746 1.35138 21.149C2.70529 21.0695 3.49335 20.8389 4.1703 19.7779C4.50361 19.2577 4.51912 19.2423 4.5217 19.2397C4.66898 18.8835 5.1444 18.3863 5.41311 18.1018C6.00739 17.474 6.76186 17.1613 7.67911 17.1613C8.13644 17.1613 8.5576 17.2485 8.94258 17.4202C9.32757 17.5919 9.66088 17.8276 9.9451 18.1275C10.2293 18.4273 10.4489 18.781 10.604 19.1885C10.759 19.5959 10.8365 20.0367 10.8365 20.5083C10.8365 21.5257 10.5394 22.3227 9.9451 22.9045C9.35083 23.4862 8.59636 23.7758 7.67911 23.7758C6.76444 23.7758 6.00997 23.4759 5.41311 22.8763C5.33043 22.7917 4.86018 22.4201 4.78783 22.3304C3.90934 21.659 2.83965 21.0746 1.4909 21.2925C0.635664 21.4309 0.139574 22.2971 0.423793 23.1095C0.470301 23.2376 0.516809 23.3606 0.568485 23.4811C0.953472 24.3883 1.48315 25.1597 2.16011 25.7952C2.83706 26.4308 3.63804 26.9254 4.56304 27.2791C5.48804 27.6327 6.48797 27.8096 7.568 27.8096C8.88574 27.8096 10.0846 27.5738 11.1647 27.1022C11.3765 27.01 11.5781 26.9075 11.7718 26.7973V26.7998C12.2008 27.7455 14.4564 27.7865 15.3401 27.4277C15.2006 26.992 15.2006 26.1079 15.2006 26.1079Z" fill="#FF5D00"/>
<path d="M20.5615 42.8201C20.448 42.8201 20.3544 42.7833 20.2809 42.7098C20.2074 42.6363 20.1707 42.5428 20.1707 42.4292V35.3842C20.1707 35.2706 20.2074 35.1771 20.2809 35.1036C20.3544 35.0301 20.448 34.9933 20.5615 34.9933H22.3654C22.94 34.9933 23.4644 35.0902 23.9388 35.284C24.4198 35.471 24.834 35.7416 25.1814 36.0957C25.5288 36.4431 25.7961 36.854 25.9831 37.3283C26.1769 37.8027 26.2737 38.3271 26.2737 38.9017C26.2737 39.4763 26.1769 40.004 25.9831 40.4851C25.7961 40.9594 25.5288 41.3736 25.1814 41.7277C24.834 42.0751 24.4198 42.3457 23.9388 42.5395C23.4644 42.7265 22.94 42.8201 22.3654 42.8201H20.5615ZM20.9524 42.1186H22.3654C22.98 42.1186 23.5212 41.9816 23.9889 41.7077C24.4632 41.4271 24.834 41.0463 25.1012 40.5652C25.3685 40.0775 25.5021 39.523 25.5021 38.9017C25.5021 38.2804 25.3685 37.7292 25.1012 37.2482C24.834 36.7604 24.4632 36.3796 23.9889 36.1057C23.5212 35.8318 22.98 35.6948 22.3654 35.6948H20.9524V42.1186ZM28.4237 42.8201C28.3101 42.8201 28.2165 42.7833 28.1431 42.7098C28.0696 42.6363 28.0328 42.5428 28.0328 42.4292V35.3842C28.0328 35.2706 28.0696 35.1771 28.1431 35.1036C28.2165 35.0301 28.3101 34.9933 28.4237 34.9933H30.2977C30.7854 34.9933 31.2196 35.0969 31.6004 35.304C31.9813 35.5044 32.2786 35.7884 32.4924 36.1558C32.7128 36.5166 32.8231 36.9341 32.8231 37.4085C32.8231 37.8628 32.7128 38.267 32.4924 38.6211C32.2786 38.9752 31.9813 39.2524 31.6004 39.4529C31.2196 39.6533 30.7854 39.7535 30.2977 39.7535H28.8145V42.4292C28.8145 42.5428 28.7777 42.6363 28.7043 42.7098C28.6308 42.7833 28.5372 42.8201 28.4237 42.8201ZM32.6126 42.8201C32.5258 42.8201 32.4556 42.8034 32.4022 42.77C32.3554 42.7366 32.312 42.6864 32.2719 42.6196L30.3478 39.5531L31.1294 39.3527L32.9233 42.2188C33.0235 42.3791 33.0402 42.5194 32.9734 42.6397C32.9133 42.7599 32.793 42.8201 32.6126 42.8201ZM28.8145 39.0019H30.2977C30.6384 39.0019 30.939 38.9351 31.1996 38.8015C31.4668 38.6612 31.6773 38.4708 31.8309 38.2303C31.9846 37.9897 32.0614 37.7158 32.0614 37.4085C32.0614 37.0811 31.9846 36.7938 31.8309 36.5467C31.6773 36.2928 31.4668 36.0957 31.1996 35.9554C30.939 35.8151 30.6384 35.7449 30.2977 35.7449H28.8145V39.0019ZM34.7689 42.8201C34.6553 42.8201 34.5618 42.7833 34.4883 42.7098C34.4148 42.6363 34.378 42.5428 34.378 42.4292V35.3842C34.378 35.2706 34.4148 35.1771 34.4883 35.1036C34.5618 35.0301 34.6553 34.9933 34.7689 34.9933C34.8824 34.9933 34.976 35.0301 35.0495 35.1036C35.123 35.1771 35.1597 35.2706 35.1597 35.3842V42.4292C35.1597 42.5428 35.123 42.6363 35.0495 42.7098C34.976 42.7833 34.8824 42.8201 34.7689 42.8201ZM39.9131 42.8201C39.746 42.8201 39.6258 42.7366 39.5523 42.5695L36.5759 35.6046C36.5024 35.4176 36.4958 35.2706 36.5559 35.1637C36.6227 35.0501 36.7363 34.9933 36.8966 34.9933C37.0636 34.9933 37.1839 35.0768 37.2574 35.2439L40.0233 41.858H39.8028L42.5587 35.2639C42.5988 35.1637 42.6489 35.0935 42.709 35.0535C42.7692 35.0134 42.8493 34.9933 42.9496 34.9933C43.1032 34.9933 43.2068 35.0535 43.2602 35.1737C43.3137 35.2873 43.3103 35.4176 43.2502 35.5646L40.2638 42.5695C40.2237 42.6631 40.1736 42.7299 40.1135 42.77C40.0534 42.8034 39.9866 42.8201 39.9131 42.8201ZM45.0322 42.8201C44.9186 42.8201 44.8251 42.7833 44.7516 42.7098C44.6781 42.6363 44.6414 42.5428 44.6414 42.4292V35.3842C44.6414 35.2706 44.6781 35.1771 44.7516 35.1036C44.8251 35.0301 44.9186 34.9933 45.0322 34.9933H49.7323C49.8392 34.9933 49.9294 35.0301 50.0028 35.1036C50.083 35.1704 50.1231 35.2606 50.1231 35.3741C50.1231 35.4744 50.083 35.5612 50.0028 35.6347C49.9294 35.7082 49.8392 35.7449 49.7323 35.7449H45.4231V38.5109H48.5598C48.6733 38.5109 48.7669 38.5476 48.8404 38.6211C48.9139 38.6946 48.9506 38.7848 48.9506 38.8917C48.9506 38.9986 48.9139 39.0888 48.8404 39.1622C48.7669 39.2357 48.6733 39.2725 48.5598 39.2725H45.4231V42.0685H49.7323C49.8392 42.0685 49.9294 42.1052 50.0028 42.1787C50.083 42.2522 50.1231 42.339 50.1231 42.4393C50.1231 42.5528 50.083 42.6464 50.0028 42.7199C49.9294 42.7867 49.8392 42.8201 49.7323 42.8201H45.0322ZM55.2075 42.8201C55.0939 42.8201 55.0004 42.7833 54.9269 42.7098C54.8534 42.6363 54.8167 42.5428 54.8167 42.4292V35.3842C54.8167 35.2706 54.8534 35.1771 54.9269 35.1036C55.0004 35.0301 55.0939 34.9933 55.2075 34.9933C55.3211 34.9933 55.4146 35.0301 55.4881 35.1036C55.5616 35.1771 55.5983 35.2706 55.5983 35.3842V42.4292C55.5983 42.5428 55.5616 42.6363 55.4881 42.7098C55.4146 42.7833 55.3211 42.8201 55.2075 42.8201ZM60.031 42.8201C59.9241 42.8201 59.8306 42.7833 59.7504 42.7098C59.6769 42.6297 59.6402 42.5361 59.6402 42.4292V34.9933H60.4218V42.4292C60.4218 42.5361 60.3851 42.6297 60.3116 42.7098C60.2381 42.7833 60.1446 42.8201 60.031 42.8201ZM57.2651 35.7049C57.1582 35.7049 57.0713 35.6714 57.0045 35.6046C56.9377 35.5378 56.9043 35.4543 56.9043 35.3541C56.9043 35.2472 56.9377 35.1604 57.0045 35.0935C57.0713 35.0267 57.1582 34.9933 57.2651 34.9933H62.8069C62.9138 34.9933 63.0007 35.0267 63.0675 35.0935C63.1343 35.1604 63.1677 35.2472 63.1677 35.3541C63.1677 35.4543 63.1343 35.5378 63.0675 35.6046C63.0007 35.6714 62.9138 35.7049 62.8069 35.7049H57.2651ZM67.9504 42.8201C67.8368 42.8201 67.7433 42.7833 67.6698 42.7098C67.5963 42.6363 67.5595 42.5428 67.5595 42.4292V35.3842C67.5595 35.2706 67.5963 35.1771 67.6698 35.1036C67.7433 35.0301 67.8368 34.9933 67.9504 34.9933H72.6504C72.7573 34.9933 72.8475 35.0301 72.921 35.1036C73.0012 35.1704 73.0412 35.2606 73.0412 35.3741C73.0412 35.4744 73.0012 35.5612 72.921 35.6347C72.8475 35.7082 72.7573 35.7449 72.6504 35.7449H68.3412V38.5109H71.4779C71.5915 38.5109 71.685 38.5476 71.7585 38.6211C71.832 38.6946 71.8687 38.7848 71.8687 38.8917C71.8687 38.9986 71.832 39.0888 71.7585 39.1622C71.685 39.2357 71.5915 39.2725 71.4779 39.2725H68.3412V42.0685H72.6504C72.7573 42.0685 72.8475 42.1052 72.921 42.1787C73.0012 42.2522 73.0412 42.339 73.0412 42.4393C73.0412 42.5528 73.0012 42.6464 72.921 42.7199C72.8475 42.7867 72.7573 42.8201 72.6504 42.8201H67.9504ZM74.2176 42.8201C74.0639 42.8201 73.9537 42.7566 73.8869 42.6297C73.8201 42.5027 73.8134 42.3791 73.8668 42.2589L76.8131 35.2639C76.8866 35.0835 77.0136 34.9933 77.194 34.9933C77.3677 34.9933 77.4913 35.0835 77.5648 35.2639L80.5211 42.2689C80.5812 42.3958 80.5712 42.5194 80.491 42.6397C80.4175 42.7599 80.3106 42.8201 80.1703 42.8201C80.0902 42.8201 80.0167 42.8 79.9499 42.7599C79.8897 42.7199 79.8396 42.6597 79.7995 42.5796L77.0436 35.8953H77.3543L74.5784 42.5796C74.545 42.6597 74.4949 42.7199 74.428 42.7599C74.3679 42.8 74.2978 42.8201 74.2176 42.8201ZM74.879 40.9561L75.1797 40.2846H79.2484L79.549 40.9561H74.879ZM84.2503 42.9203C83.8227 42.9203 83.4252 42.8602 83.0577 42.7399C82.697 42.613 82.383 42.4359 82.1157 42.2088C81.8485 41.9816 81.6447 41.7177 81.5044 41.4171C81.451 41.3102 81.4476 41.2133 81.4944 41.1264C81.5479 41.0329 81.6347 40.9694 81.755 40.936C81.8485 40.9093 81.9387 40.9193 82.0255 40.9661C82.1191 41.0129 82.1892 41.083 82.236 41.1766C82.3362 41.3703 82.4832 41.544 82.6769 41.6977C82.8707 41.8513 83.1012 41.9716 83.3684 42.0584C83.6356 42.1386 83.9296 42.1787 84.2503 42.1787C84.6044 42.1787 84.9184 42.1219 85.1923 42.0083C85.4662 41.8881 85.68 41.7177 85.8337 41.4972C85.994 41.2701 86.0742 40.9962 86.0742 40.6755C86.0742 40.2679 85.9239 39.9172 85.6232 39.6232C85.3226 39.3293 84.8516 39.1422 84.2102 39.062C83.4285 38.9685 82.8172 38.728 82.3763 38.3405C81.9353 37.9463 81.7149 37.4653 81.7149 36.8974C81.7149 36.4899 81.8218 36.1358 82.0356 35.8351C82.256 35.5345 82.5567 35.304 82.9375 35.1437C83.3183 34.9766 83.7559 34.8931 84.2503 34.8931C84.6177 34.8931 84.9518 34.9532 85.2524 35.0735C85.5531 35.1871 85.8136 35.3407 86.0341 35.5345C86.2613 35.7216 86.445 35.9287 86.5853 36.1558C86.6521 36.2627 86.6721 36.3663 86.6454 36.4665C86.6254 36.5667 86.5686 36.6435 86.4751 36.697C86.3748 36.7437 86.2713 36.7504 86.1644 36.717C86.0642 36.6836 85.9873 36.6201 85.9339 36.5266C85.8337 36.3729 85.7067 36.2293 85.5531 36.0957C85.4061 35.9554 85.2257 35.8452 85.0119 35.765C84.7981 35.6848 84.5409 35.6414 84.2403 35.6347C83.7125 35.6347 83.2882 35.7483 82.9676 35.9754C82.6469 36.1959 82.4865 36.5199 82.4865 36.9475C82.4865 37.1747 82.5467 37.3851 82.6669 37.5789C82.7872 37.7659 82.9843 37.9296 83.2582 38.0699C83.5388 38.2035 83.9129 38.3037 84.3806 38.3706C85.2157 38.4908 85.8337 38.748 86.2345 39.1422C86.6421 39.5297 86.8458 40.0375 86.8458 40.6655C86.8458 41.0262 86.779 41.3469 86.6454 41.6275C86.5185 41.9081 86.3348 42.1453 86.0942 42.339C85.8604 42.5261 85.5831 42.6697 85.2625 42.77C84.9485 42.8702 84.6111 42.9203 84.2503 42.9203ZM90.5722 42.8201C90.4653 42.8201 90.3717 42.7833 90.2916 42.7098C90.2181 42.6297 90.1813 42.5361 90.1813 42.4292V39.9239L87.4555 35.6046C87.3887 35.5044 87.362 35.4076 87.3753 35.314C87.3954 35.2205 87.4388 35.1437 87.5056 35.0835C87.5724 35.0234 87.6559 34.9933 87.7561 34.9933C87.8363 34.9933 87.8998 35.01 87.9466 35.0434C88 35.0768 88.0468 35.1236 88.0869 35.1837L90.7926 39.5431H90.3717L93.0675 35.2038C93.1143 35.1303 93.1644 35.0768 93.2178 35.0434C93.278 35.01 93.3481 34.9933 93.4283 34.9933C93.5218 34.9933 93.5986 35.0267 93.6588 35.0935C93.7256 35.1537 93.7623 35.2305 93.769 35.324C93.7824 35.4176 93.759 35.5111 93.6989 35.6046L90.963 39.9239V42.4292C90.963 42.5361 90.9229 42.6297 90.8427 42.7098C90.7693 42.7833 90.6791 42.8201 90.5722 42.8201Z" fill="#FF5D00"/>
</svg>
