<svg width="48" height="48" viewBox="0 0 48 48" fill="none" xmlns="http://www.w3.org/2000/svg">
<path d="M16.503 13.0577C17.7877 9.11669 18.4301 7.14617 19.6904 5.8901C20.7989 4.78524 22.23 4.05851 23.7784 3.81407C25.5387 3.53619 27.5158 4.17645 31.4699 5.45697L34.9118 6.5716C38.866 7.85212 40.8431 8.49238 42.1033 9.74845C43.2118 10.8533 43.941 12.2796 44.1862 13.8229C44.465 15.5774 43.8227 17.5479 42.5379 21.4889L40.7027 27.1184C39.4179 31.0594 38.7755 33.03 37.5152 34.286C36.4067 35.3909 34.9756 36.1176 33.4272 36.3621C31.6669 36.6399 29.6898 35.9997 25.7357 34.7192L22.2938 33.6045C18.3396 32.324 16.3626 31.6838 15.1023 30.4277C13.9938 29.3228 13.2646 27.8965 13.0194 26.3533C12.7406 24.5988 13.3829 22.6283 14.6677 18.6872L16.503 13.0577Z" fill="#FF5D04"/>
<g filter="url(#filter0_b_2336_762)">
<rect x="3.75" y="12.75" width="28.5" height="28.5" rx="8.28409" fill="#FF5D04" fill-opacity="0.32"/>
<rect x="3.86506" y="12.8651" width="28.2699" height="28.2699" rx="8.16903" stroke="url(#paint0_linear_2336_762)" stroke-width="0.230114"/>
</g>
<g filter="url(#filter1_bdii_2336_762)">
<path fill-rule="evenodd" clip-rule="evenodd" d="M28.2603 21.1743C28.8136 21.7908 28.7624 22.7392 28.1459 23.2926L17.3033 33.0247C16.7331 33.5364 15.869 33.5363 15.299 33.0244L8.79656 27.1844C8.18021 26.6309 8.12931 25.6825 8.68285 25.0661C9.2364 24.4498 10.1848 24.3989 10.8011 24.9524L16.3016 29.8925L26.142 21.06C26.7585 20.5066 27.7069 20.5578 28.2603 21.1743Z" fill="url(#paint1_linear_2336_762)"/>
</g>
<defs>
<filter id="filter0_b_2336_762" x="-7.29545" y="1.70455" width="50.5909" height="50.5909" filterUnits="userSpaceOnUse" color-interpolation-filters="sRGB">
<feFlood flood-opacity="0" result="BackgroundImageFix"/>
<feGaussianBlur in="BackgroundImageFix" stdDeviation="5.52273"/>
<feComposite in2="SourceAlpha" operator="in" result="effect1_backgroundBlur_2336_762"/>
<feBlend mode="normal" in="SourceGraphic" in2="effect1_backgroundBlur_2336_762" result="shape"/>
</filter>
<filter id="filter1_bdii_2336_762" x="1.85565" y="14.2331" width="33.2321" height="25.6183" filterUnits="userSpaceOnUse" color-interpolation-filters="sRGB">
<feFlood flood-opacity="0" result="BackgroundImageFix"/>
<feGaussianBlur in="BackgroundImageFix" stdDeviation="3.22159"/>
<feComposite in2="SourceAlpha" operator="in" result="effect1_backgroundBlur_2336_762"/>
<feColorMatrix in="SourceAlpha" type="matrix" values="0 0 0 0 0 0 0 0 0 0 0 0 0 0 0 0 0 0 127 0" result="hardAlpha"/>
<feOffset dx="1.84091" dy="1.84091"/>
<feGaussianBlur stdDeviation="2.30114"/>
<feColorMatrix type="matrix" values="0 0 0 0 0.248715 0 0 0 0 0.270833 0 0 0 0 0.261354 0 0 0 0.5 0"/>
<feBlend mode="normal" in2="effect1_backgroundBlur_2336_762" result="effect2_dropShadow_2336_762"/>
<feBlend mode="normal" in="SourceGraphic" in2="effect2_dropShadow_2336_762" result="shape"/>
<feColorMatrix in="SourceAlpha" type="matrix" values="0 0 0 0 0 0 0 0 0 0 0 0 0 0 0 0 0 0 127 0" result="hardAlpha"/>
<feOffset dy="0.0920455"/>
<feComposite in2="hardAlpha" operator="arithmetic" k2="-1" k3="1"/>
<feColorMatrix type="matrix" values="0 0 0 0 1 0 0 0 0 1 0 0 0 0 1 0 0 0 0.25 0"/>
<feBlend mode="normal" in2="shape" result="effect3_innerShadow_2336_762"/>
<feColorMatrix in="SourceAlpha" type="matrix" values="0 0 0 0 0 0 0 0 0 0 0 0 0 0 0 0 0 0 127 0" result="hardAlpha"/>
<feOffset dy="-0.0920455"/>
<feComposite in2="hardAlpha" operator="arithmetic" k2="-1" k3="1"/>
<feColorMatrix type="matrix" values="0 0 0 0 0.138108 0 0 0 0 0.770833 0 0 0 0 0.20138 0 0 0 0.35 0"/>
<feBlend mode="normal" in2="effect3_innerShadow_2336_762" result="effect4_innerShadow_2336_762"/>
</filter>
<linearGradient id="paint0_linear_2336_762" x1="5.27267" y1="14.8133" x2="27.2064" y2="41.9861" gradientUnits="userSpaceOnUse">
<stop stop-color="white" stop-opacity="0.25"/>
<stop offset="1" stop-color="white" stop-opacity="0"/>
</linearGradient>
<linearGradient id="paint1_linear_2336_762" x1="21.5232" y1="13.2492" x2="15.5698" y2="57.1845" gradientUnits="userSpaceOnUse">
<stop stop-color="white" stop-opacity="0.88"/>
<stop offset="1" stop-color="white" stop-opacity="0"/>
</linearGradient>
</defs>
</svg>
