<svg width="48" height="48" viewBox="0 0 48 48" fill="none" xmlns="http://www.w3.org/2000/svg">
<path fill-rule="evenodd" clip-rule="evenodd" d="M24 4C12.954 4 3.99999 12.954 3.99999 24C4 35.046 12.954 44 24 44C35.046 44 44 35.046 44 24C44 12.954 35.046 4 24 4ZM19.94 31.06C19.6591 30.7787 19.5013 30.3975 19.5013 30C19.5013 29.6025 19.6591 29.2213 19.94 28.94L24.88 24L19.94 19.06C19.7926 18.9227 19.6744 18.7571 19.5924 18.5731C19.5104 18.3891 19.4664 18.1904 19.4628 17.989C19.4593 17.7876 19.4963 17.5876 19.5717 17.4008C19.6472 17.214 19.7595 17.0444 19.9019 16.9019C20.0444 16.7595 20.214 16.6472 20.4008 16.5718C20.5876 16.4963 20.7876 16.4593 20.989 16.4628C21.1904 16.4664 21.3891 16.5105 21.5731 16.5924C21.7571 16.6744 21.9227 16.7926 22.06 16.94L28.06 22.94C28.3409 23.2212 28.4987 23.6025 28.4987 24C28.4987 24.3975 28.3409 24.7787 28.06 25.06L22.06 31.06C21.7787 31.3409 21.3975 31.4987 21 31.4987C20.6025 31.4987 20.2212 31.3409 19.94 31.06Z" fill="#FF5D04"/>
</svg>
