<svg xmlns="http://www.w3.org/2000/svg" width="29" height="29" viewBox="0 0 29 29" fill="none">
<path d="M19.7071 11.7071C20.0976 11.3166 20.0976 10.6834 19.7071 10.2929C19.3166 9.90237 18.6834 9.90237 18.2929 10.2929L12.3333 16.2525L10.3738 14.2929C9.98325 13.9024 9.35009 13.9024 8.95956 14.2929C8.56904 14.6834 8.56904 15.3166 8.95956 15.7071L11.6262 18.3738C12.0168 18.7643 12.6499 18.7643 13.0404 18.3738L19.7071 11.7071Z" fill="#15B354"/>
<path fill-rule="evenodd" clip-rule="evenodd" d="M14.4098 2.6825e-07H14.2568C11.179 -1.63339e-05 8.76692 -2.93255e-05 6.88494 0.252996C4.95863 0.511982 3.4386 1.05244 2.24552 2.24552C1.05244 3.4386 0.511982 4.95863 0.252996 6.88494C-2.93255e-05 8.76692 -1.63339e-05 11.179 2.6825e-07 14.2568V14.4098C-1.63339e-05 17.4877 -2.93255e-05 19.8997 0.252996 21.7817C0.511982 23.708 1.05244 25.2281 2.24552 26.4212C3.4386 27.6142 4.95863 28.1547 6.88494 28.4137C8.76692 28.6667 11.179 28.6667 14.2568 28.6667H14.4098C17.4877 28.6667 19.8997 28.6667 21.7817 28.4137C23.708 28.1547 25.2281 27.6142 26.4212 26.4212C27.6142 25.2281 28.1547 23.708 28.4137 21.7817C28.6667 19.8997 28.6667 17.4877 28.6667 14.4098V14.2568C28.6667 11.179 28.6667 8.76692 28.4137 6.88494C28.1547 4.95863 27.6142 3.4386 26.4212 2.24552C25.2281 1.05244 23.708 0.511982 21.7817 0.252996C19.8997 -2.93255e-05 17.4877 -1.63339e-05 14.4098 2.6825e-07ZM3.65973 3.65973C4.41927 2.90019 5.4469 2.46433 7.15144 2.23516C8.88474 2.00213 11.1624 2 14.3333 2C17.5043 2 19.7819 2.00213 21.5152 2.23516C23.2198 2.46433 24.2474 2.90019 25.0069 3.65973C25.7665 4.41927 26.2023 5.4469 26.4315 7.15144C26.6645 8.88474 26.6667 11.1624 26.6667 14.3333C26.6667 17.5043 26.6645 19.7819 26.4315 21.5152C26.2023 23.2198 25.7665 24.2474 25.0069 25.0069C24.2474 25.7665 23.2198 26.2023 21.5152 26.4315C19.7819 26.6645 17.5043 26.6667 14.3333 26.6667C11.1624 26.6667 8.88474 26.6645 7.15144 26.4315C5.4469 26.2023 4.41927 25.7665 3.65973 25.0069C2.90019 24.2474 2.46433 23.2198 2.23516 21.5152C2.00213 19.7819 2 17.5043 2 14.3333C2 11.1624 2.00213 8.88474 2.23516 7.15144C2.46433 5.4469 2.90019 4.41927 3.65973 3.65973Z" fill="#15B354"/>
</svg>