<svg width="170" height="45" viewBox="0 0 170 45" fill="none" xmlns="http://www.w3.org/2000/svg">
<path d="M29.418 30.2867C29.418 28.8477 29.6618 27.5705 30.1537 26.4549C30.6456 25.3394 31.3226 24.3981 32.1845 23.635C33.0464 22.872 34.089 22.2914 35.3125 21.8933C36.5318 21.4952 37.873 21.3003 39.3319 21.3003C41.1188 21.3003 42.5104 21.4911 43.5069 21.8726C44.5033 22.2541 45.2264 22.6646 45.6721 23.1084C45.9412 23.4028 46.1472 23.7097 46.2986 24.0331C46.4457 24.3566 46.5214 24.7381 46.5214 25.1777C46.5214 25.6172 46.4541 26.0319 46.3196 26.4135C46.185 26.795 46.0211 27.135 45.8277 27.4253C45.6343 27.7197 45.4493 27.9686 45.2685 28.1759C45.0877 28.3833 44.9574 28.5284 44.8649 28.6155C44.3561 28.3791 43.7465 28.1593 43.0318 27.9561C42.317 27.7529 41.5266 27.6492 40.6647 27.6492C39.5337 27.6492 38.5709 27.9727 37.7847 28.6196C36.9943 29.2666 36.5991 30.3365 36.5991 31.8376V44.3946H29.418V30.2867Z" fill="#F4F4F4"/>
<path d="M49.78 15.8802C49.78 14.7647 50.1584 13.8234 50.9194 13.0603C51.6804 12.2973 52.6222 11.9158 53.7574 11.9158C54.8884 11.9158 55.8428 12.2973 56.6164 13.0603C57.39 13.8234 57.7768 14.7647 57.7768 15.8802C57.7768 16.9958 57.39 17.9288 56.6164 18.6794C55.8428 19.43 54.8884 19.8032 53.7574 19.8032C52.6264 19.8032 51.6804 19.43 50.9194 18.6794C50.1584 17.9288 49.78 16.9958 49.78 15.8802ZM50.1836 25.0408C50.1836 23.8963 50.5242 23.0876 51.2095 22.619C51.8948 22.1504 52.803 21.914 53.934 21.914C54.737 21.914 55.4686 22.0094 56.1244 22.2002C56.7803 22.3909 57.1966 22.5153 57.3732 22.5734V44.3821H50.1794V25.0408H50.1836Z" fill="#F4F4F4"/>
<path d="M69.4812 44.3863C68.5563 42.7731 67.6565 41.1102 66.7778 39.41C65.8991 37.7056 65.1045 36.1132 64.3897 34.6286C63.675 33.144 63.078 31.8833 62.6029 30.8383C62.1278 29.7974 61.8293 29.1297 61.7115 28.8353C61.4719 28.2464 61.2112 27.5871 60.9295 26.8531C60.6478 26.1191 60.5049 25.4597 60.5049 24.8708C60.5049 24.0497 60.8034 23.3531 61.3962 22.7766C61.9932 22.2044 62.8846 21.9182 64.0786 21.9182C65.033 21.9182 65.8066 22.0136 66.4036 22.2044C67.0007 22.3951 67.3412 22.5195 67.4295 22.5776C67.934 24.0166 68.4722 25.4721 69.0398 26.9401C69.6032 28.4082 70.1497 29.7684 70.6711 31.0166C71.1924 32.2648 71.6591 33.3679 72.0795 34.3217C72.4958 35.2755 72.7943 35.9473 72.9709 36.3288C73.1517 35.9473 73.4334 35.2921 73.8202 34.3673C74.207 33.4425 74.6316 32.4141 75.0941 31.282C75.5566 30.1499 76.0148 29.0219 76.4773 27.8898C76.9398 26.7577 77.335 25.7956 77.663 25.0035C77.8395 24.564 78.0414 24.1534 78.2642 23.7677C78.487 23.3862 78.7561 23.0545 79.0672 22.7766C79.3784 22.4988 79.761 22.2831 80.2066 22.138C80.6523 21.9929 81.2031 21.9182 81.8589 21.9182C82.456 21.9182 82.9899 21.9763 83.4692 22.0965C83.9443 22.2126 84.3647 22.3453 84.7221 22.4946C85.0795 22.6439 85.3612 22.7808 85.5714 22.9135C85.7816 23.0462 85.912 23.1291 85.975 23.154C85.8573 23.6807 85.5714 24.4852 85.1257 25.5551C84.6801 26.6291 84.1503 27.8525 83.5407 29.2334C82.9311 30.6143 82.2668 32.0616 81.552 33.5752C80.8373 35.0889 80.1351 36.5486 79.454 37.9585C78.7687 39.3685 78.1297 40.6375 77.5326 41.7696C76.9356 42.9017 76.4731 43.7725 76.1494 44.3904H69.4812V44.3863Z" fill="#F4F4F4"/>
<path d="M87.9727 33.1481C87.9727 31.4437 88.3006 29.872 88.9565 28.433C89.6124 26.994 90.5121 25.7458 91.6599 24.6883C92.8077 23.6309 94.1405 22.8015 95.6583 22.2002C97.176 21.5989 98.8158 21.2961 100.573 21.2961C102.301 21.2961 103.932 21.5989 105.463 22.2002C106.997 22.8015 108.339 23.6309 109.482 24.6883C110.63 25.7458 111.53 26.994 112.186 28.433C112.842 29.872 113.17 31.4437 113.17 33.1481C113.17 34.8525 112.842 36.4242 112.186 37.8631C111.53 39.3021 110.63 40.5503 109.482 41.6078C108.334 42.6653 106.993 43.4947 105.463 44.096C103.928 44.6973 102.297 45 100.573 45C98.8158 45 97.176 44.6973 95.6583 44.096C94.1405 43.4947 92.8077 42.6653 91.6599 41.6078C90.5121 40.5503 89.6124 39.3021 88.9565 37.8631C88.3006 36.4242 87.9727 34.8525 87.9727 33.1481ZM100.569 38.6593C101.313 38.6593 102.007 38.5184 102.646 38.2405C103.285 37.9627 103.844 37.5811 104.319 37.096C104.794 36.6108 105.16 36.0302 105.412 35.3542C105.665 34.6783 105.791 33.9443 105.791 33.1522C105.791 32.3602 105.665 31.6261 105.412 30.9502C105.16 30.2742 104.794 29.6937 104.319 29.2085C103.844 28.7233 103.285 28.3418 102.646 28.0639C102.007 27.7861 101.313 27.6451 100.569 27.6451C99.7954 27.6451 99.0932 27.7861 98.471 28.0639C97.8445 28.3418 97.2938 28.7233 96.8187 29.2085C96.3436 29.6937 95.9778 30.2742 95.7255 30.9502C95.4733 31.6261 95.3471 32.3602 95.3471 33.1522C95.3471 33.9443 95.4733 34.6783 95.7255 35.3542C95.9778 36.0302 96.3436 36.6108 96.8187 37.096C97.2938 37.5811 97.8445 37.9627 98.471 38.2405C99.0975 38.5184 99.7954 38.6593 100.569 38.6593Z" fill="#F4F4F4"/>
<path d="M124.156 44.3863C123.231 42.7731 122.331 41.1102 121.452 39.41C120.573 37.7056 119.779 36.1132 119.064 34.6286C118.349 33.144 117.752 31.8833 117.277 30.8383C116.802 29.7974 116.504 29.1297 116.386 28.8353C116.146 28.2464 115.886 27.5871 115.604 26.8531C115.322 26.1191 115.179 25.4597 115.179 24.8708C115.179 24.0497 115.478 23.3531 116.071 22.7766C116.668 22.2044 117.559 21.9182 118.753 21.9182C119.707 21.9182 120.481 22.0136 121.078 22.2044C121.675 22.3951 122.016 22.5195 122.104 22.5776C122.608 24.0166 123.146 25.4721 123.714 26.9401C124.277 28.4082 124.824 29.7684 125.345 31.0166C125.867 32.2648 126.333 33.3679 126.754 34.3217C127.17 35.2755 127.469 35.9473 127.645 36.3288C127.826 35.9473 128.108 35.2921 128.494 34.3673C128.881 33.4425 129.306 32.4141 129.768 31.282C130.231 30.1499 130.689 29.0219 131.152 27.8898C131.614 26.7577 132.009 25.7956 132.337 25.0035C132.514 24.564 132.716 24.1534 132.939 23.7677C133.161 23.3862 133.43 23.0545 133.742 22.7766C134.053 22.4988 134.435 22.2831 134.881 22.138C135.327 21.9929 135.877 21.9182 136.533 21.9182C137.13 21.9182 137.664 21.9763 138.144 22.0965C138.619 22.2126 139.039 22.3453 139.396 22.4946C139.754 22.6398 140.036 22.7808 140.246 22.9135C140.456 23.0462 140.586 23.1291 140.649 23.154C140.532 23.6807 140.246 24.4852 139.8 25.5551C139.354 26.6291 138.825 27.8525 138.215 29.2334C137.605 30.6143 136.941 32.0616 136.226 33.5752C135.512 35.0889 134.809 36.5486 134.128 37.9585C133.443 39.3685 132.804 40.6375 132.207 41.7696C131.61 42.9017 131.147 43.7725 130.824 44.3904H124.156V44.3863Z" fill="#F4F4F4"/>
<path d="M142.65 33.1481C142.65 31.4437 142.978 29.872 143.634 28.433C144.29 26.994 145.19 25.7458 146.338 24.6883C147.485 23.6309 148.818 22.8015 150.336 22.2002C151.854 21.5989 153.493 21.2961 155.251 21.2961C156.979 21.2961 158.61 21.5989 160.141 22.2002C161.675 22.8015 163.016 23.6309 164.16 24.6883C165.308 25.7458 166.208 26.994 166.863 28.433C167.519 29.872 167.847 31.4437 167.847 33.1481C167.847 34.8525 167.519 36.4242 166.863 37.8631C166.208 39.3021 165.308 40.5503 164.16 41.6078C163.012 42.6653 161.671 43.4947 160.141 44.096C158.606 44.6973 156.975 45 155.251 45C153.493 45 151.854 44.6973 150.336 44.096C148.818 43.4947 147.485 42.6653 146.338 41.6078C145.19 40.5503 144.29 39.3021 143.634 37.8631C142.978 36.4242 142.65 34.8525 142.65 33.1481ZM155.247 38.6593C155.991 38.6593 156.685 38.5184 157.324 38.2405C157.963 37.9627 158.522 37.5811 158.997 37.096C159.472 36.6108 159.838 36.0302 160.09 35.3542C160.342 34.6783 160.469 33.9443 160.469 33.1522C160.469 32.3602 160.342 31.6261 160.09 30.9502C159.838 30.2742 159.472 29.6937 158.997 29.2085C158.522 28.7233 157.963 28.3418 157.324 28.0639C156.685 27.7861 155.991 27.6451 155.247 27.6451C154.473 27.6451 153.771 27.7861 153.149 28.0639C152.522 28.3418 151.971 28.7233 151.496 29.2085C151.021 29.6937 150.656 30.2742 150.403 30.9502C150.151 31.6261 150.025 32.3602 150.025 33.1522C150.025 33.9443 150.151 34.6783 150.403 35.3542C150.656 36.0302 151.021 36.6108 151.496 37.096C151.971 37.5811 152.522 37.9627 153.149 38.2405C153.771 38.5184 154.473 38.6593 155.247 38.6593Z" fill="#F4F4F4"/>
<path d="M170 25.2938C165.691 16.2535 157.601 15.8471 153.54 15.1504C149.802 14.5118 145.568 13.7861 140.124 10.9828C131.538 6.56629 120.266 5.44662 109.2 7.9099C101.881 9.53964 96.9784 11.5841 93.5224 14.9846C92.9548 15.5444 89.8645 18.4763 89.4777 18.8288C85.2019 22.702 82.5573 17.9911 82.5615 16.8756C82.9021 16.3282 83.3099 15.7642 83.764 15.1961C86.1731 12.1605 87.4134 10.8086 91.9625 7.54911C97.6384 3.48097 105.564 1.93002 107.615 1.47386C115.082 -0.184914 129.659 -1.91418 143.433 5.16877C147.898 7.46617 151.236 8.03845 154.772 8.6439C155.617 8.78905 156.466 8.93419 157.332 9.10421C164.698 10.5432 170 16.6889 170 23.8383V25.2938Z" fill="#FF5D00"/>
<path d="M24.7345 42.2465V32.1363V29.6399V8.9052C24.5579 8.84715 24.1458 8.72274 23.5068 8.53198C22.8677 8.34122 20.488 7.7648 18.6171 10.4188C17.5618 11.9159 17.5912 13.8981 17.5912 15.0468V23.7222C17.0531 23.1955 16.2416 22.6564 15.1569 22.1132C14.0679 21.5699 12.6931 21.2962 11.024 21.2962C9.50619 21.2962 8.0767 21.5824 6.7355 22.1546C5.3943 22.7269 4.22548 23.5273 3.22905 24.5557C2.23261 25.5842 1.44218 26.8241 0.861978 28.2797C0.349044 29.5569 0.0126933 30.9669 8.01123e-05 32.5054C-0.012533 33.9858 1.46741 34.2637 2.19897 34.2222C4.40207 34.0937 5.6844 33.7204 6.78595 32.0036C7.32832 31.1618 7.35354 31.1369 7.35775 31.1328C7.5974 30.5563 8.37101 29.7518 8.80826 29.2915C9.77527 28.2755 11.0029 27.7696 12.4955 27.7696C13.2397 27.7696 13.925 27.9106 14.5514 28.1884C15.1779 28.4663 15.7203 28.8478 16.1827 29.333C16.6452 29.8182 17.0026 30.3905 17.2549 31.0498C17.5071 31.7092 17.6333 32.4225 17.6333 33.1855C17.6333 34.8318 17.1498 36.1215 16.1827 37.0629C15.2157 38.0042 13.9881 38.4728 12.4955 38.4728C11.0072 38.4728 9.77947 37.9876 8.80826 37.0173C8.67372 36.8804 7.90852 36.2791 7.7908 36.134C6.36131 35.0475 4.6207 34.102 2.42601 34.4544C1.03436 34.6784 0.227117 36.08 0.689599 37.3946C0.765278 37.602 0.840957 37.801 0.925044 37.9959C1.5515 39.4639 2.4134 40.7122 3.51494 41.7406C4.61649 42.7691 5.91985 43.5694 7.42502 44.1417C8.93019 44.714 10.5573 45.0001 12.3147 45.0001C14.459 45.0001 16.4098 44.6186 18.1672 43.8555C18.512 43.7063 18.8399 43.5404 19.1552 43.3621V43.3662C19.8532 44.8964 23.5236 44.9628 24.9615 44.3822C24.7345 43.6772 24.7345 42.2465 24.7345 42.2465Z" fill="#FF5D00"/>
</svg>
