<svg width="38" height="38" viewBox="0 0 38 38" fill="none" xmlns="http://www.w3.org/2000/svg">
<g clip-path="url(#clip0_1814_3094)">
<path d="M29.413 0.522461H8.90028C4.28615 0.522461 0.545654 4.26296 0.545654 8.87709V29.3898C0.545654 34.0039 4.28615 37.7444 8.90028 37.7444H29.413C34.0271 37.7444 37.7676 34.0039 37.7676 29.3898V8.87709C37.7676 4.26296 34.0271 0.522461 29.413 0.522461Z" fill="#FD3832"/>
<path fill-rule="evenodd" clip-rule="evenodd" d="M10.8612 26.0121C10.4891 25.8993 10.1496 25.6987 9.87138 25.4272C9.59313 25.1557 9.38428 24.8212 9.26244 24.452C8.56622 22.5439 8.35993 14.576 9.7008 13.0031C10.1471 12.4914 10.7771 12.1764 11.4542 12.1264C15.0514 11.7396 26.1651 11.7912 27.4415 12.2553C27.8005 12.3718 28.1285 12.568 28.4009 12.8292C28.6733 13.0905 28.883 13.41 29.0144 13.7638C29.7751 15.7364 29.8009 22.9049 28.9113 24.8001C28.6753 25.2935 28.2802 25.6931 27.7896 25.9347C26.4487 26.6052 12.6404 26.5923 10.8612 26.0121ZM16.5727 22.2731L23.0192 18.921L16.5727 15.543V22.2731Z" fill="white"/>
</g>
<defs>
<clipPath id="clip0_1814_3094">
<rect width="37.2219" height="37.2219" fill="white" transform="translate(0.545654 0.522461)"/>
</clipPath>
</defs>
</svg>
